<svg baseProfile="basic" xmlns="http://www.w3.org/2000/svg" viewBox="22.0446 572.3333 200 60" width="200" height="60"><path d="M140.472 599c0-4.846-2.073-9.11-9.07-9.11-3.59 0-6.44 1.01-7.997 1.908l1.138 3.896c1.423-.9 3.69-1.64 5.835-1.64 3.547-.01 4.13 2.008 4.13 3.302v.307c-7.74-.013-12.628 2.665-12.628 8.125 0 3.332 2.49 6.455 6.82 6.455 2.662 0 4.89-1.062 6.223-2.764h.133s.882 3.69 5.754 2.28c-.257-1.54-.34-3.18-.34-5.158V599zm-5.778 5.12c0 .395-.035.802-.144 1.158-.447 1.482-1.982 2.736-3.9 2.736-1.6 0-2.872-.907-2.872-2.83 0-2.938 3.233-3.752 6.916-3.732v2.67zm-112.65-20.83s5.055 20.715 5.86 24.077c.943 3.925 2.64 5.37 7.53 4.394l3.158-12.84c.8-3.19 1.337-5.46 1.852-8.71h.09c.362 3.28.877 5.53 1.532 8.72 0 0 1.286 5.83 1.944 8.897.66 3.06 2.496 4.988 7.29 3.94l7.52-28.473h-6.074l-2.57 12.31c-.69 3.58-1.313 6.383-1.798 9.66h-.086c-.437-3.246-.995-5.934-1.698-9.424l-2.674-12.55h-6.327l-2.86 12.23c-.808 3.715-1.568 6.716-2.05 9.883H32.6a347.998 347.998 0 0 0-1.864-10.35s-1.698-8.748-2.293-11.764h-6.395zM75.724 599c0-4.846-2.07-9.11-9.062-9.11-3.59 0-6.445 1.01-8 1.908l1.14 3.896c1.423-.9 3.687-1.64 5.833-1.64 3.55-.01 4.13 2.008 4.13 3.302v.307c-7.738-.013-12.625 2.665-12.625 8.125 0 3.332 2.488 6.455 6.815 6.455 2.665 0 4.89-1.062 6.227-2.764h.13s.884 3.69 5.754 2.28c-.255-1.54-.34-3.18-.34-5.158V599zm-5.774 5.12c0 .395-.035.802-.147 1.158-.444 1.482-1.98 2.736-3.9 2.736-1.6 0-2.87-.907-2.87-2.83 0-2.938 3.234-3.752 6.915-3.732v2.67zm14.71 1.596V583.29h-5.78v28.47h5.783m73.53-28.47v21.004c0 2.896.548 4.924 1.713 6.163 1.022 1.085 2.697 1.786 4.708 1.786 1.71 0 3.39-.323 4.183-.62l-.073-4.516a8.91 8.91 0 0 1-2.196.26c-1.968 0-2.63-1.262-2.63-3.86v-8.036h5.034v-5.44h-5.034v-6.735h-5.704zm-14.923 7.083v21.388h5.965v-10.95c0-.59.038-1.1.13-1.58.442-2.29 2.195-3.76 4.714-3.76.69 0 1.18.08 1.72.16v-5.6a5.83 5.83 0 0 0-1.32-.133c-2.225 0-4.758 1.437-5.818 4.517h-.163v-4.034h-5.234zm-55.263 0v21.388h5.812v-12.54c0-.583.06-1.204.27-1.75.48-1.26 1.652-2.74 3.53-2.74 2.343 0 3.44 1.986 3.44 4.848v12.19h5.805V599.07c0-.562.08-1.237.245-1.734.476-1.436 1.744-2.606 3.487-2.606 2.38 0 3.52 1.95 3.52 5.316v11.72h5.81v-12.598c0-6.644-3.375-9.273-7.18-9.273-1.69 0-3.02.423-4.224 1.16-1.012.623-1.918 1.505-2.71 2.665h-.085c-.917-2.304-3.078-3.824-5.89-3.824-3.618 0-5.246 1.833-6.23 3.39h-.085v-2.907h-5.52z" fill="#FFF"/><path d="M200.174 589.415c1.15 0 2.097-.598 2.226-1.37l1.135-12.843c0-1.27-1.488-2.312-3.357-2.312-1.867 0-3.353 1.042-3.353 2.312l1.135 12.843c.126.772 1.073 1.37 2.218 1.37h-.004zm-6.94 4.012c.576-.994.53-2.114-.075-2.61l-10.56-7.404c-1.1-.634-2.74.13-3.68 1.75-.938 1.617-.77 3.424.325 4.058l11.687 5.45c.73.27 1.726-.25 2.3-1.244l-.004.008zm13.886-.007c.576.994 1.568 1.515 2.3 1.243l11.687-5.442c1.102-.63 1.26-2.44.33-4.052-.94-1.62-2.586-2.384-3.68-1.75L207.2 590.82c-.606.495-.65 1.614-.077 2.61l-.004-.008zm-6.946 12.035c1.15 0 2.097.595 2.226 1.368l1.135 12.84c0 1.27-1.488 2.313-3.357 2.313-1.867 0-3.353-1.042-3.353-2.313l1.135-12.84c.126-.773 1.073-1.368 2.218-1.368h-.004zm6.946-4.01c.576-.997 1.568-1.514 2.3-1.238l11.687 5.436c1.102.636 1.26 2.444.33 4.063-.94 1.614-2.586 2.382-3.68 1.75l-10.558-7.4c-.61-.502-.65-1.62-.08-2.614l-.005.002zm-13.886-.003c.576.995.53 2.112-.075 2.614l-10.56 7.4c-1.1.632-2.74-.136-3.68-1.75-.938-1.62-.77-3.427.325-4.064l11.687-5.435c.73-.276 1.726.24 2.3 1.237l-.004-.002z" fill="#FDBB30"/></svg>